PathFileType	4	(X/Y/Z)	F:\MotionCapture\20160217\3\Generated_files\EMG_Fprce_test03-Dynamic.trc
DataRate	CameraRate	NumFrames	NumMarkers	Units	OrigDataRate	OrigDataStartFrame	OrigNumFrames
120.00	120.00	       4	39	mm	120.00	96	       766
Frame#	Time	Top.Head			Front.Head			Rear.Head			R.Shoulder			R.Offset			R.Elbow			R.Wrist			L.Shoulder			L.Elbow			L.Wrist			R.ASIS			L.ASIS			V.Sacral			R.Thigh			R.Knee			R.Shank			R.Ankle			R.Heel			R.Toe			L.Thigh			L.Knee			L.Shank			L.Ankle			L.Heel			L.Toe			R1			R2			R3			R4			R5			R6			R7			L1			L2			L3			L4			L5			L6			L7			V_Mid_ASIS			V_Pelvis_Origin			V_R.Hip_JC			V_L.Hip_JC			V_R.Knee_JC			V_L.Knee_JC			V_R.Ankle_JC			V_L.Ankle_JC			V_Mid_Hip			V_Mid_Shoulder			V_R.Hand			V_L.Hand			V_R.Toe_Offset_Static			V_L.Toe_Offset_Static			V_R.Toe_Offset			V_L.Toe_Offset			
		X1	Y1	Z1	X2	Y2	Z2	X3	Y3	Z3	X4	Y4	Z4	X5	Y5	Z5	X6	Y6	Z6	X7	Y7	Z7	X8	Y8	Z8	X9	Y9	Z9	X10	Y10	Z10	X11	Y11	Z11	X12	Y12	Z12	X13	Y13	Z13	X14	Y14	Z14	X15	Y15	Z15	X16	Y16	Z16	X17	Y17	Z17	X18	Y18	Z18	X19	Y19	Z19	X20	Y20	Z20	X21	Y21	Z21	X22	Y22	Z22	X23	Y23	Z23	X24	Y24	Z24	X25	Y25	Z25	X26	Y26	Z26	X27	Y27	Z27	X28	Y28	Z28	X29	Y29	Z29	X30	Y30	Z30	X31	Y31	Z31	X32	Y32	Z32	X33	Y33	Z33	X34	Y34	Z34	X35	Y35	Z35	X36	Y36	Z36	X37	Y37	Z37	X38	Y38	Z38	X39	Y39	Z39	

96	0.792	2252.22144	50.55630	1711.47632	2134.01978	57.46813	1637.40198	2354.38354	35.64383	1634.89990	2322.90649	232.08011	1403.94922	2418.14185	-56.31002	1273.09668	2450.25269	329.59375	1113.51221	2427.73804	382.07019	857.37067	2232.04541	-165.91866	1409.15735	2158.12329	-257.96152	1090.66968	1964.75659	-178.82063	936.31659	2261.53198	176.69437	936.07391	2239.34766	-109.94167	916.69080	2473.88599	20.44389	940.27094	2100.80957	171.28337	637.46967	2122.41846	217.74165	510.11401	2083.90747	144.98164	277.43289	2127.93311	199.05220	102.37939	2175.30640	123.18481	65.94551	1985.94080	205.87524	98.28107	2269.65869	-44.67244	588.56262	2392.48560	-94.23161	447.78741	2420.24512	-11.44033	313.57910	2546.93872	-63.94284	64.39598	2617.45068	-11.00494	53.12393	2410.70264	-53.43292	46.94529	1937.92896	200.14832	110.81895	1973.83069	174.32205	110.28514	2060.32617	123.36181	105.76839	2125.43945	104.24931	78.48513	2156.87842	172.26982	68.94717	2079.04102	211.03166	63.59963	2023.02234	233.97977	77.38482	2370.85864	-24.49644	49.16515	2402.12036	-14.23934	52.57110	2495.65869	24.24495	59.01886	2578.70947	21.02957	53.74293	2589.83521	-50.57678	49.27121	2514.75488	-77.09005	37.66739	2450.75635	-87.33276	44.28775																																																	2351.60718	-28.20760	60.45425	
97	0.800	2245.89795	50.76938	1710.40784	2128.11060	57.82004	1635.98291	2348.00757	35.92116	1633.23364	2317.32764	231.91930	1402.64648	2411.86230	-56.23949	1271.73853	2446.95313	329.58524	1113.56067	2427.41846	382.36472	857.21674	2225.32202	-165.60007	1407.56311	2148.38745	-256.59299	1089.58447	1952.05396	-174.99586	939.76697	2254.92407	176.64603	934.80768	2234.29272	-110.41553	915.55798	2468.23877	21.28541	939.05322	2095.57910	170.47339	636.10260	2116.21289	216.02159	508.84241	2071.27417	144.86058	277.35638	2109.19702	200.21460	101.15030	2156.75977	125.61544	63.64269	1967.24463	206.11526	100.66048	2265.52295	-44.89432	587.77142	2390.00879	-94.23521	447.47290	2418.28735	-11.41624	313.21204	2546.89355	-63.62072	65.23441	2616.97827	-10.58286	53.97076	2410.50513	-53.68732	46.60970	1920.28735	199.24448	114.54234	1955.75354	174.33447	112.51408	2042.61365	124.16210	106.15270	2107.11816	106.57260	76.36584	2137.72827	174.44000	66.42583	2059.66553	212.20111	63.72282	2004.07312	235.14241	79.29574	2369.78516	-25.76804	46.23364	2401.81152	-15.97526	50.98028	2495.15479	24.31617	58.90039	2578.66235	21.99929	54.66323	2589.55200	-49.95112	50.13593	2514.78540	-77.00414	37.74778	2450.64771	-87.38477	44.11716																																																	2091.03955	69.90482	-8.92014	2519.45117	81.17404	-72.27811	9809.65039	-1870.41638	738.54742	
98	0.808	2239.56152	51.62209	1708.66235	2122.46631	58.37672	1634.71582	2341.31543	36.44954	1631.74463	2311.68799	232.59911	1401.61768	2405.27808	-56.06230	1270.48267	2443.26807	329.40717	1113.42224	2427.00024	383.26764	856.94470	2217.97510	-165.04720	1405.79431	2138.40918	-255.57199	1088.86243	1939.74316	-170.91437	943.58087	2248.58374	176.71570	933.22089	2227.63892	-108.68147	913.31647	2462.44336	22.06258	937.67059	2089.80786	168.66435	634.05389	2109.64917	214.70190	507.38095	2059.14624	145.73099	276.98013	2091.65503	200.52832	99.29365	2138.60571	127.89017	61.61359	1948.86060	207.51451	102.96640	2261.62598	-44.85516	586.01581	2387.60303	-94.31336	446.66779	2415.83838	-11.36534	312.56161	2549.15820	-67.16147	68.90972	2616.54517	-10.03439	54.54446	2410.24585	-53.80925	46.33398	1902.47083	200.20303	117.89115	1938.22327	174.75916	114.61147	2025.98596	124.85589	106.63762	2089.17236	108.23996	75.00703	2118.72998	176.93239	65.14438	2041.07983	213.51942	64.54824	1985.20374	235.86317	80.84798	2369.42188	-25.88771	45.36014	2401.01904	-15.73879	50.43221	2494.43701	24.31840	58.47063	2578.22998	22.65811	55.20502	2589.03052	-49.78832	50.71822	2514.92798	-76.88390	37.72869	2450.57007	-87.45664	43.98107																																																	9688.79590	-1842.39160	747.18884	
99	0.817	2232.65356	51.41420	1707.20728	2115.51416	58.48548	1632.91663	2334.51050	36.64206	1630.10107	2304.64746	233.04958	1400.27942	2398.88867	-55.88979	1269.29517	2439.17944	328.83997	1113.14722	2426.44141	384.66403	856.74347	2210.85181	-164.28871	1404.23547	2128.51074	-253.53658	1087.57117	1928.24548	-166.94803	946.88409	2242.44580	176.52942	931.41132	2222.79053	-110.08536	911.82715	2456.50854	22.96532	936.27722	2084.31006	167.87796	632.07910	2103.50293	213.61633	506.65442	2047.60522	145.44186	276.92703	2074.19360	203.81718	99.79256	2121.43701	128.58861	59.70391	1931.81726	207.03770	105.00059	2258.22314	-45.10106	584.88531	2385.00073	-93.75138	445.45074	2413.34424	-10.95496	312.20502	2544.44482	-60.60472	63.56516	2616.13721	-9.43767	55.51041	2409.97168	-53.64099	45.88145	1885.28186	200.30032	121.10773	1921.24231	175.27484	116.63352	2009.29260	126.52451	106.98219	2072.15063	109.97743	73.86027	2099.93359	179.03874	63.71826	2026.51099	219.35576	68.28286	1967.28113	236.87718	82.84055	2368.63208	-25.94143	44.25838	2400.36719	-15.35590	49.71484	2494.14355	24.49830	58.26451	2577.73438	22.76201	55.55321	2588.19922	-49.00127	51.70753	2514.72339	-75.31926	38.27941	2450.51514	-87.44299	43.85758																																																	2470.80957	-146.63248	438.47644	
